<svg xmlns="http://www.w3.org/2000/svg"  viewBox="0 0 30 30" width="48px" height="48px"><path fill="#fff" d="M59.262-148.489l-13.88-24.04c-1.96-3.39-5.61-5.5-9.53-5.5H8.092c-3.92,0-7.57,2.11-9.53,5.5 l-13.88,24.04c-1.96,3.39-1.96,7.61,0,11l13.88,24.04c1.96,3.4,5.61,5.5,9.53,5.5h27.76c3.92,0,7.57-2.1,9.53-5.5l13.88-24.04 C61.222-140.879,61.222-145.099,59.262-148.489z M36.852-129.239c-3.58,3.97-8.49,6.31-13.83,6.59c-0.36,0.02-0.71,0.03-1.07,0.03 c-4.95,0-9.66-1.8-13.37-5.14c-8.2-7.38-8.87-20.06-1.48-28.27c0.57-0.63,1.18-1.23,1.83-1.78c1.25-1.08,3.14-0.94,4.23,0.32 c1.08,1.25,0.93,3.15-0.33,4.23c-0.44,0.38-0.87,0.8-1.27,1.25c-5.17,5.74-4.71,14.62,1.04,19.79c2.78,2.51,6.36,3.78,10.11,3.58 c3.74-0.2,7.18-1.84,9.68-4.62c5.17-5.74,4.7-14.62-1.04-19.79c-1.23-1.11-1.33-3.01-0.22-4.24c1.11-1.23,3-1.33,4.24-0.22 C43.572-150.129,44.232-137.449,36.852-129.239z M18.972-144.019v-16.96c0-1.66,1.35-3,3-3c1.66,0,3,1.34,3,3v16.96 c0,1.65-1.34,3-3,3c-0.82,0-1.58-0.34-2.12-0.88C19.312-142.439,18.972-143.199,18.972-144.019z M34.092-54.279l-6.2-10.5 c-0.56-0.95-1.35-1.73-2.27-2.27l-0.16-0.28h-0.34c-0.87-0.42-1.84-0.65-2.83-0.65H9.662c-1,0-1.96,0.23-2.83,0.65h-0.44 l-0.22,0.37c-0.85,0.54-1.58,1.28-2.11,2.18l-6.2,10.5c-0.57,0.97-0.87,2.04-0.9,3.12l-0.1,0.18l0.1,0.18 c0.03,1.08,0.33,2.15,0.9,3.12l6.2,10.5c0.53,0.9,1.26,1.64,2.12,2.18l0.21,0.36h0.42c0.88,0.43,1.84,0.66,2.85,0.66h12.63 c1,0,1.97-0.23,2.85-0.66h0.32l0.15-0.26c0.93-0.55,1.72-1.32,2.28-2.28l6.2-10.5c0.6-1.02,0.9-2.16,0.9-3.3 S34.692-53.259,34.092-54.279z M11.652-45.909c2.66,2.4,6.78,2.18,9.17-0.48c2.4-2.66,2.18-6.78-0.48-9.17 c-0.62-0.56-0.67-1.51-0.11-2.12c0.55-0.62,1.5-0.67,2.12-0.11c3.89,3.5,4.2,9.52,0.7,13.41c-1.87,2.08-4.46,3.14-7.06,3.14 c-2.27,0-4.54-0.81-6.35-2.44c-3.89-3.5-4.21-9.52-0.7-13.41c0.27-0.3,0.56-0.59,0.86-0.85c0.63-0.54,1.58-0.46,2.12,0.16 c0.54,0.63,0.47,1.58-0.16,2.12c-0.21,0.18-0.41,0.37-0.6,0.58C8.772-52.419,8.992-48.299,11.652-45.909z M14.492-52.479v-7 c0-0.83,0.68-1.5,1.5-1.5c0.83,0,1.5,0.67,1.5,1.5v7c0,0.83-0.67,1.5-1.5,1.5C15.172-50.979,14.492-51.649,14.492-52.479z M29.122,14.481c-0.07-0.77-0.3-1.52-0.7-2.21l-4.33-7.5c-0.4-0.7-0.94-1.28-1.58-1.73l-0.3-0.52h-0.6 c-0.71-0.33-1.48-0.5-2.28-0.5h-8.66c-0.8,0-1.57,0.17-2.28,0.5h-0.6l-0.3,0.52c-0.64,0.45-1.18,1.03-1.58,1.73l-4.33,7.5 c-0.4,0.69-0.63,1.44-0.7,2.21l-0.3,0.52l0.29,0.51c0.07,0.78,0.3,1.56,0.71,2.26l4.33,7.5c0.41,0.71,0.97,1.31,1.62,1.76 l0.26,0.45h0.51c0.73,0.35,1.54,0.54,2.37,0.54h8.66c0.83,0,1.64-0.19,2.37-0.54h0.51l0.26-0.45c0.65-0.45,1.21-1.05,1.62-1.76 l4.33-7.5c0.41-0.7,0.64-1.48,0.71-2.26l0.29-0.51L29.122,14.481z M12.032,18.531c1.82,1.63,4.63,1.49,6.26-0.33 c1.64-1.82,1.49-4.62-0.33-6.26c-0.46-0.42-0.49-1.13-0.08-1.59c0.42-0.46,1.13-0.5,1.59-0.08c2.74,2.46,2.96,6.7,0.5,9.44 c-1.2,1.32-2.84,2.11-4.62,2.2c-0.12,0.01-0.24,0.01-0.36,0.01c-1.65,0-3.23-0.6-4.46-1.72c-1.33-1.19-2.11-2.83-2.21-4.61 c-0.09-1.79,0.52-3.5,1.71-4.83c0.19-0.21,0.39-0.41,0.61-0.59c0.47-0.41,1.18-0.35,1.59,0.12c0.4,0.47,0.35,1.18-0.12,1.58 c-0.15,0.13-0.28,0.26-0.41,0.4c-0.79,0.88-1.19,2.01-1.13,3.2C10.632,16.651,11.152,17.741,12.032,18.531z M13.872,14.871v-5.73 c0-0.62,0.51-1.12,1.13-1.12s1.12,0.5,1.12,1.12v5.73c0,0.62-0.5,1.13-1.12,1.13S13.872,15.491,13.872,14.871z M21.632,58.651 c-0.05-0.49-0.21-0.97-0.47-1.41l-2.05-3.49c-0.26-0.43-0.6-0.8-1.01-1.08l-0.18-0.3h-0.34c-0.46-0.23-0.97-0.35-1.49-0.35h-4.22 c-0.52,0-1.03,0.12-1.49,0.35h-0.26l-0.13,0.22c-0.46,0.28-0.85,0.68-1.13,1.16l-2.06,3.49c-0.29,0.49-0.45,1.02-0.48,1.57 l-0.11,0.19l0.11,0.19c0.02,0.56,0.18,1.11,0.48,1.61l2.06,3.49c0.29,0.49,0.69,0.9,1.17,1.19l0.09,0.15h0.18 c0.48,0.26,1.02,0.39,1.57,0.39h4.22c0.56,0,1.1-0.14,1.58-0.39h0.25l0.14-0.23c0.42-0.28,0.78-0.66,1.05-1.11l2.05-3.49 c0.27-0.45,0.43-0.95,0.47-1.46l0.2-0.34L21.632,58.651z M12.362,60.911c0.48,0.44,1.08,0.66,1.74,0.62 c0.64-0.03,1.24-0.32,1.67-0.8c0.43-0.47,0.65-1.09,0.62-1.74c-0.04-0.64-0.32-1.23-0.8-1.67c-0.25-0.22-0.27-0.6-0.04-0.84 c0.22-0.25,0.6-0.27,0.84-0.05c0.72,0.65,1.14,1.53,1.19,2.5c0.06,0.96-0.27,1.89-0.92,2.61c-0.64,0.72-1.53,1.14-2.5,1.19h-0.19 c-0.89,0-1.75-0.32-2.41-0.92c-0.72-0.65-1.15-1.54-1.2-2.5c-0.05-0.97,0.28-1.89,0.93-2.61c0.1-0.11,0.21-0.22,0.32-0.32 c0.25-0.22,0.63-0.19,0.85,0.06c0.22,0.25,0.19,0.63-0.06,0.84c-0.08,0.07-0.15,0.14-0.22,0.22c-0.43,0.48-0.65,1.1-0.62,1.74 C11.602,59.891,11.882,60.481,12.362,60.911z M13.372,59.021v-2.95c0-0.33,0.27-0.6,0.6-0.6c0.34,0,0.6,0.27,0.6,0.6v2.95 c0,0.33-0.26,0.6-0.6,0.6C13.642,59.621,13.372,59.351,13.372,59.021z"/><path fill="#bae0bd" d="M29.122,14.481l-6.61-11.44l-0.3-0.52H7.792l-0.3,0.52l-6.61,11.44l-0.3,0.52l0.29,0.51l6.66,11.52 l0.26,0.45h14.42l0.26-0.45l6.66-11.52l0.29-0.51L29.122,14.481z M19.972,19.711c-1.2,1.32-2.84,2.11-4.62,2.2 c-0.12,0.01-0.24,0.01-0.36,0.01c-1.65,0-3.23-0.6-4.46-1.72c-1.33-1.19-2.11-2.83-2.21-4.61c-0.09-1.79,0.52-3.5,1.71-4.83 c0.19-0.21,0.39-0.41,0.61-0.59c0.47-0.41,1.18-0.35,1.59,0.12c0.4,0.47,0.35,1.18-0.12,1.58c-0.15,0.13-0.28,0.26-0.41,0.4 c-0.79,0.88-1.19,2.01-1.13,3.2c0.06,1.18,0.58,2.27,1.46,3.06c1.82,1.63,4.63,1.49,6.26-0.33c1.64-1.82,1.49-4.62-0.33-6.26 c-0.46-0.42-0.49-1.13-0.08-1.59c0.42-0.46,1.13-0.5,1.59-0.08C22.212,12.731,22.432,16.971,19.972,19.711z M16.122,9.141v5.73 c0,0.62-0.5,1.13-1.12,1.13s-1.13-0.51-1.13-1.13v-5.73c0-0.62,0.51-1.12,1.13-1.12S16.122,8.521,16.122,9.141z"/><path fill="#5e9c76" d="M29.122,14.481c-0.07-0.77-0.3-1.52-0.7-2.21l-4.33-7.5c-0.4-0.7-0.94-1.28-1.58-1.73 c-0.28-0.2-0.58-0.38-0.9-0.52c-0.71-0.33-1.48-0.5-2.28-0.5h-8.66c-0.8,0-1.57,0.17-2.28,0.5c-0.32,0.14-0.62,0.32-0.9,0.52 c-0.64,0.45-1.18,1.03-1.58,1.73l-4.33,7.5c-0.4,0.69-0.63,1.44-0.7,2.21c-0.04,0.34-0.04,0.69-0.01,1.03 c0.07,0.78,0.3,1.56,0.71,2.26l4.33,7.5c0.41,0.71,0.97,1.31,1.62,1.76c0.24,0.17,0.5,0.32,0.77,0.45 c0.73,0.35,1.54,0.54,2.37,0.54h8.66c0.83,0,1.64-0.19,2.37-0.54c0.27-0.13,0.53-0.28,0.77-0.45c0.65-0.45,1.21-1.05,1.62-1.76 l4.33-7.5c0.41-0.7,0.64-1.48,0.71-2.26C29.162,15.171,29.162,14.821,29.122,14.481z M19.332,27.021h-8.66 c-1.6,0-3.1-0.86-3.9-2.25l-4.33-7.5c-0.8-1.39-0.8-3.11,0-4.5l4.33-7.5c0.8-1.39,2.3-2.25,3.9-2.25h8.66c1.6,0,3.1,0.86,3.9,2.25 l4.33,7.5c0.8,1.39,0.8,3.11,0,4.5l-4.33,7.5C22.432,26.161,20.932,27.021,19.332,27.021z"/></svg>